HIERARCHY
ROOT Hips
{
	OFFSET -0.001795 -0.223333 0.028219
	CHANNELS 6 Xposition Yposition Zposition Zrotation Yrotation Xrotation 
	JOINT LeftUpLeg
	{
		OFFSET 0.069520 -0.091406 -0.006815
		CHANNELS 3 Zrotation Yrotation Xrotation
		JOINT LeftLeg
		{
			OFFSET 0.034277 -0.375199 -0.004496
			CHANNELS 3 Zrotation Yrotation Xrotation
			JOINT LeftFoot
			{
				OFFSET -0.013596 -0.397961 -0.043693
				CHANNELS 3 Zrotation Yrotation Xrotation
				JOINT LeftToe
				{
					OFFSET 0.026358 -0.055791 0.119288
					CHANNELS 3 Zrotation Yrotation Xrotation
					End Site
					{
						OFFSET 0.000000 0.000000 0.000000
					}
				}
			}
		}
	}
	JOINT RightUpLeg
	{
		OFFSET -0.067670 -0.090522 -0.004320
		CHANNELS 3 Zrotation Yrotation Xrotation
		JOINT RightLeg
		{
			OFFSET -0.038290 -0.382569 -0.008850
			CHANNELS 3 Zrotation Yrotation Xrotation
			JOINT RightFoot
			{
				OFFSET 0.015774 -0.398415 -0.042312
				CHANNELS 3 Zrotation Yrotation Xrotation
				JOINT RightToe
				{
					OFFSET -0.025372 -0.048144 0.123348
					CHANNELS 3 Zrotation Yrotation Xrotation
					End Site
					{
						OFFSET 0.000000 0.000000 0.000000
					}
				}
			}
		}
	}
	JOINT Spine
	{
		OFFSET -0.002533 0.108963 -0.026696
		CHANNELS 3 Zrotation Yrotation Xrotation
		JOINT Spine1
		{
			OFFSET 0.005487 0.135180 0.001092
			CHANNELS 3 Zrotation Yrotation Xrotation
			JOINT Spine2
			{
				OFFSET 0.001457 0.052922 0.025425
				CHANNELS 3 Zrotation Yrotation Xrotation
				JOINT Neck
				{
					OFFSET -0.002778 0.213870 -0.042857
					CHANNELS 3 Zrotation Yrotation Xrotation
					JOINT Head
					{
						OFFSET 0.005152 0.064970 0.051349
						CHANNELS 3 Zrotation Yrotation Xrotation
						End Site
						{
							OFFSET 0.000000 0.000000 0.000000
						}
					}
				}
				JOINT LeftShoulder
				{
					OFFSET 0.078845 0.121749 -0.034090
					CHANNELS 3 Zrotation Yrotation Xrotation
					JOINT LeftArm
					{
						OFFSET 0.090977 0.030469 -0.008868
						CHANNELS 3 Zrotation Yrotation Xrotation
						JOINT LeftForeArm
						{
							OFFSET 0.259612 -0.012772 -0.027456
							CHANNELS 3 Zrotation Yrotation Xrotation
							JOINT LeftHand
							{
								OFFSET 0.249234 0.008986 -0.001171
								CHANNELS 3 Zrotation Yrotation Xrotation
								End Site
								{
									OFFSET 0.000000 0.000000 0.000000
								}
							}
						}
					}
				}
				JOINT RightShoulder
				{
					OFFSET -0.081759 0.118833 -0.038615
					CHANNELS 3 Zrotation Yrotation Xrotation
					JOINT RightArm
					{
						OFFSET -0.096012 0.032551 -0.009143
						CHANNELS 3 Zrotation Yrotation Xrotation
						JOINT RightForeArm
						{
							OFFSET -0.253742 -0.013329 -0.021401
							CHANNELS 3 Zrotation Yrotation Xrotation
							JOINT RightHand
							{
								OFFSET -0.255298 0.007772 -0.005559
								CHANNELS 3 Zrotation Yrotation Xrotation
								End Site
								{
									OFFSET 0.000000 0.000000 0.000000
								}
							}
						}
					}
				}
			}
		}
	}
}
MOTION
Frames: 13
Frame Time: 0.050000
0.000000 0.949845 0.000000 -0.838392 -7.400319 -2.609581 -1.867153 0.701953 6.009146 3.507056 -0.132962 -4.507947 -7.717121 -10.949974 9.150689 0.000000 0.000000 0.000000 3.468498 -0.827143 6.147784 -1.027703 0.015954 -1.633556 2.747786 -0.226431 10.828765 0.000000 0.000000 0.000000 4.459887 -0.436368 5.663258 -3.738732 2.295216 9.144919 -2.426269 4.385605 -10.319069 6.622012 -4.296258 -3.508964 0.000000 0.000000 0.000000 -30.130725 -7.680924 0.341104 -42.484491 1.056064 -3.815257 -12.426363 -27.751358 3.810882 0.000000 0.000000 0.000000 28.584069 3.021389 -0.745962 47.939098 -1.337028 -3.954575 16.917053 31.893366 5.502698 0.000000 0.000000 0.000000 
-0.000924 0.948468 0.001257 -1.312891 -7.577052 -1.925447 -0.553468 0.641783 6.039178 2.150078 0.035675 -5.553864 -7.690401 -11.006025 8.977137 0.000000 0.000000 0.000000 4.100801 -0.780826 5.295650 -1.145938 0.047221 -1.178226 2.702686 -0.116000 10.411577 0.000000 0.000000 0.000000 4.572840 -0.412522 5.147715 -3.276220 2.103304 10.426460 -3.364483 4.500193 -11.162913 7.897235 -4.885884 -4.862613 0.000000 0.000000 0.000000 -29.754859 -7.693856 0.135708 -43.101512 0.896202 -3.699241 -11.656348 -27.121955 3.497129 0.000000 0.000000 0.000000 28.740486 2.748639 -0.773342 48.581991 -1.301032 -3.978856 15.874964 31.658545 5.197631 0.000000 0.000000 0.000000 
-0.001920 0.948213 0.002563 -0.898602 -7.806473 -1.688431 -0.913307 0.555251 5.109864 2.018782 -0.028595 -4.260784 -7.446524 -10.801504 8.594637 0.000000 0.000000 0.000000 4.068961 -0.712005 4.731208 -1.819524 0.136474 -0.583140 2.629125 -0.048625 9.942222 0.000000 0.000000 0.000000 4.388797 -0.445659 5.657805 -3.356134 2.000384 7.660002 -3.494829 5.024807 -9.173214 7.149428 -4.633802 -3.852248 0.000000 0.000000 0.000000 -29.170089 -7.734230 0.227445 -43.231047 0.691441 -3.798171 -12.710466 -25.232519 3.497949 0.000000 0.000000 0.000000 29.338279 3.171101 -0.349028 47.899263 -0.670584 -3.904464 14.523059 31.217312 4.813985 0.000000 0.000000 0.000000 
-0.003247 0.947988 0.004523 -0.798678 -8.638052 -1.302282 -0.670059 0.563940 5.234557 1.382841 0.053248 -4.859333 -7.131380 -10.250524 8.702246 0.000000 0.000000 0.000000 4.258575 -0.658786 4.173182 -2.385649 0.208290 -0.189434 2.894738 0.526591 9.659650 0.000000 0.000000 0.000000 3.877357 -0.418122 5.568730 -2.562848 1.636009 8.821466 -3.816170 5.181242 -9.996347 7.366777 -4.835417 -3.494589 0.000000 0.000000 0.000000 -29.466710 -7.015020 -0.292714 -43.616929 1.055177 -3.903384 -12.860139 -25.343072 3.531515 0.000000 0.000000 0.000000 29.381446 3.710529 -0.023312 47.626137 -0.406997 -3.714061 14.264378 31.408651 4.766800 0.000000 0.000000 0.000000 
-0.005002 0.948267 0.007140 -0.654691 -9.101454 -1.162219 -1.079356 0.534676 4.816847 1.902080 -0.035911 -4.025009 -6.790709 -9.829283 8.420359 0.000000 0.000000 0.000000 4.250264 -0.602026 3.703564 -2.576145 0.276819 0.625726 3.023156 0.820501 9.487268 0.000000 0.000000 0.000000 3.869862 -0.440609 5.899093 -2.821124 1.820512 8.991760 -3.491983 4.937655 -10.250671 7.147179 -4.726243 -3.197322 0.000000 0.000000 0.000000 -29.214299 -6.948904 -0.110091 -44.011412 1.705538 -4.222067 -13.579263 -25.144207 3.686637 0.000000 0.000000 0.000000 28.762426 3.702563 -0.223084 47.909521 -0.525883 -3.683680 14.131738 30.979051 4.613514 0.000000 0.000000 0.000000 
-0.007334 0.948435 0.010662 -0.750869 -9.481503 -0.734950 -0.921694 0.500028 4.554535 1.939398 -0.050086 -3.845150 -6.567315 -9.523757 8.291587 0.000000 0.000000 0.000000 4.747368 -0.496014 2.594623 -3.112812 0.443653 2.210704 3.044670 0.950223 9.252617 0.000000 0.000000 0.000000 3.737412 -0.472428 6.429897 -2.552965 1.589623 7.460372 -3.141849 4.863478 -9.072068 7.064390 -4.711107 -3.190842 0.000000 0.000000 0.000000 -29.617521 -6.671730 -0.055295 -43.757999 2.744151 -4.710935 -14.512164 -26.141006 4.094086 0.000000 0.000000 0.000000 28.464270 4.371037 0.090238 47.723385 -0.908113 -3.866232 14.170174 30.813576 4.584318 0.000000 0.000000 0.000000 
-0.010322 0.948873 0.015051 -0.722968 -9.847030 -0.200153 -1.092975 0.433792 3.920179 2.364550 -0.129129 -3.149958 -6.294474 -9.148394 8.118182 0.000000 0.000000 0.000000 5.084911 -0.322476 1.097194 -3.522686 0.661964 4.350168 3.048331 1.007240 9.087970 0.000000 0.000000 0.000000 3.782270 -0.513841 6.951181 -2.285344 1.431966 7.107722 -3.161577 4.559624 -8.545704 7.260953 -4.691318 -4.153415 0.000000 0.000000 0.000000 -29.411031 -6.169513 -0.134823 -43.725369 3.020812 -4.906541 -14.811313 -27.741052 4.460376 0.000000 0.000000 0.000000 27.957945 4.034748 -0.267833 47.741829 -1.231746 -3.975340 14.242558 31.482398 4.689264 0.000000 0.000000 0.000000 
-0.014452 0.948439 0.021002 -0.890187 -11.312527 0.811949 -0.911900 0.276411 2.563200 2.380925 -0.221445 -1.601409 -5.364411 -7.929891 7.345986 0.000000 0.000000 0.000000 5.459843 -0.187203 -0.135409 -3.808484 0.788343 5.393885 3.527133 2.095876 8.635459 0.000000 0.000000 0.000000 4.002737 -0.580769 7.677583 -2.590412 1.579202 5.911590 -2.551136 4.832863 -7.644570 7.100511 -4.432104 -5.242018 0.000000 0.000000 0.000000 -28.196908 -5.671189 -0.043761 -44.977087 3.753932 -5.492846 -16.196790 -30.067697 5.274843 0.000000 0.000000 0.000000 26.729577 3.360215 -0.831418 48.480130 -1.715815 -4.230523 16.019733 32.628277 5.333912 0.000000 0.000000 0.000000 
-0.020139 0.947534 0.029918 -1.023672 -12.618712 1.451650 -1.005233 0.209918 1.957540 2.919831 -0.358338 -0.298709 -4.505660 -6.797966 6.517584 0.000000 0.000000 0.000000 5.770835 -0.132493 -0.702921 -4.004383 0.901306 6.316285 4.004889 3.227407 8.209649 0.000000 0.000000 0.000000 4.537629 -0.685737 8.711985 -2.721488 1.634336 5.113703 -2.427610 4.933874 -6.719157 7.005342 -4.225945 -6.362681 0.000000 0.000000 0.000000 -27.518563 -4.555102 -0.413404 -44.626475 4.114686 -5.716726 -17.836107 -33.149601 6.408597 0.000000 0.000000 0.000000 26.036960 3.181998 -1.078418 48.787726 -2.275408 -4.498129 17.364763 34.327406 6.000165 0.000000 0.000000 0.000000 
-0.027529 0.945250 0.042854 -1.400796 -13.479530 2.363141 -0.758677 0.031353 0.347427 3.415642 -0.584796 2.830269 -3.673814 -5.884422 4.967376 0.000000 0.000000 0.000000 6.727408 -0.096834 -1.221161 -4.673935 1.147344 7.693081 3.923935 4.097831 6.664256 0.000000 0.000000 0.000000 4.880904 -0.736215 8.959562 -2.775259 1.648861 4.603867 -1.689664 4.908877 -5.784438 6.499176 -3.850207 -6.928344 0.000000 0.000000 0.000000 -26.191895 -3.874025 -0.426626 -44.929869 5.669280 -6.453813 -21.735335 -37.346632 8.729996 0.000000 0.000000 0.000000 24.906837 2.576215 -1.552522 48.281635 -2.717582 -4.630709 19.692884 36.098340 7.029694 0.000000 0.000000 0.000000 
-0.035857 0.942037 0.060369 -1.936837 -14.601285 2.405156 -0.229821 -0.115955 -1.149762 3.215250 -0.747794 8.297579 -2.314557 -3.933079 3.013999 0.000000 0.000000 0.000000 7.548927 -0.355253 0.295224 -4.959855 1.230469 8.015947 3.742565 5.204257 4.627657 0.000000 0.000000 0.000000 5.493220 -0.879547 10.561043 -2.957906 1.760240 4.455700 -1.404739 5.568627 -5.890421 5.999645 -3.482310 -7.142960 0.000000 0.000000 0.000000 -23.905404 -2.899193 -0.874344 -44.675565 7.300254 -6.958869 -29.665957 -41.300685 12.866195 0.000000 0.000000 0.000000 23.358979 1.760250 -1.849020 49.563156 -3.612993 -5.143041 22.565870 38.607593 8.558068 0.000000 0.000000 0.000000 
-0.043987 0.935126 0.081978 -2.586294 -15.055965 2.900274 0.491271 -0.440340 -5.221057 2.712213 -0.683267 17.891841 -1.126195 -2.015728 1.278658 0.000000 0.000000 0.000000 7.999391 -0.451101 0.751509 -4.532500 1.456770 10.565874 2.920412 6.685740 0.704742 0.000000 0.000000 0.000000 6.053401 -1.012358 11.752678 -2.941338 1.739286 4.166041 -0.991863 6.609133 -5.394577 6.251144 -3.588187 -7.514178 0.000000 0.000000 0.000000 -22.377443 -2.412576 -1.206258 -43.898493 9.067170 -7.412988 -39.783178 -46.111118 19.123760 0.000000 0.000000 0.000000 22.965818 1.086285 -1.959572 48.981986 -4.559966 -5.545653 25.679682 43.175660 11.091326 0.000000 0.000000 0.000000 
-0.050629 0.924844 0.107056 -3.464159 -17.245955 2.944868 1.509975 -0.617372 -9.662742 1.521158 0.391268 29.568935 0.306413 1.128478 1.904027 0.000000 0.000000 0.000000 8.207577 -0.636642 1.870869 -5.084002 2.031623 13.880914 2.578615 11.413838 -4.559740 0.000000 0.000000 0.000000 7.359952 -1.263625 14.029567 -3.847201 2.339781 4.761103 -1.283918 8.488428 -6.575001 5.884295 -3.365373 -6.918944 0.000000 0.000000 0.000000 -21.083489 -1.792467 -1.821051 -42.698499 11.053877 -7.677747 -52.507780 -51.565661 28.379684 0.000000 0.000000 0.000000 23.488600 0.710983 -1.891932 47.551048 -4.502232 -5.324762 29.310904 47.323118 14.151081 0.000000 0.000000 0.000000 
